<svg width="55" height="55" viewBox="0 0 55 55" fill="none" xmlns="http://www.w3.org/2000/svg">
<path d="M27.4998 47.9808C27.0628 47.9837 26.6329 47.8701 26.2543 47.6518C25.8757 47.4335 25.5621 47.1184 25.3456 46.7388L22.0227 41.021C22.0017 40.9809 21.9672 40.9495 21.9253 40.9323C21.8833 40.9151 21.8367 40.9133 21.7936 40.9271L15.4181 42.6252C14.997 42.7361 14.5542 42.7347 14.1338 42.6211C13.7134 42.5075 13.3302 42.2857 13.0223 41.9777C12.7143 41.6698 12.4925 41.2866 12.3789 40.8662C12.2653 40.4458 12.2639 40.003 12.3748 39.5819L14.089 33.1652C14.101 33.122 14.0983 33.076 14.0813 33.0345C14.0643 32.993 14.0339 32.9583 13.995 32.936L8.26585 29.6383C7.88751 29.4199 7.57334 29.1057 7.35491 28.7274C7.13648 28.3491 7.02148 27.9199 7.02148 27.483C7.02148 27.0462 7.13648 26.617 7.35491 26.2387C7.57334 25.8603 7.88751 25.5461 8.26585 25.3277L13.979 22.0231C14.0182 22.0011 14.0488 21.9665 14.0659 21.9249C14.0829 21.8833 14.0854 21.8372 14.0729 21.794L12.3748 15.4185C12.2639 14.9974 12.2653 14.5546 12.3789 14.1342C12.4925 13.7139 12.7143 13.3306 13.0223 13.0227C13.3302 12.7148 13.7134 12.4929 14.1338 12.3793C14.5542 12.2657 14.997 12.2643 15.4181 12.3752L21.8348 14.0894C21.878 14.1003 21.9236 14.097 21.9648 14.0801C22.0061 14.0632 22.0408 14.0335 22.064 13.9954L25.3617 8.26625C25.5766 7.88845 25.8875 7.57416 26.263 7.35523C26.6385 7.1363 27.0652 7.02051 27.4998 7.01958C27.9368 7.01673 28.3667 7.13029 28.7453 7.34858C29.1239 7.56687 29.4375 7.88203 29.654 8.26167L32.9769 13.9794C32.9979 14.0195 33.0324 14.0509 33.0744 14.0681C33.1163 14.0853 33.1629 14.0871 33.2061 14.0733L39.5815 12.3752C40.0026 12.2643 40.4454 12.2657 40.8658 12.3793C41.2862 12.4929 41.6694 12.7148 41.9773 13.0227C42.2853 13.3306 42.5071 13.7139 42.6207 14.1342C42.7343 14.5546 42.7357 14.9974 42.6248 15.4185L40.9106 21.8352C40.8982 21.8784 40.9007 21.9245 40.9177 21.9661C40.9348 22.0078 40.9654 22.0424 41.0046 22.0644L46.7338 25.3621C47.1121 25.5805 47.4263 25.8947 47.6447 26.273C47.8631 26.6514 47.9781 27.0805 47.9781 27.5174C47.9781 27.9543 47.8631 28.3834 47.6447 28.7618C47.4263 29.1401 47.1121 29.4543 46.7338 29.6727L41.0206 32.9773C40.982 32.9999 40.9519 33.0346 40.9349 33.076C40.9179 33.1174 40.915 33.1632 40.9267 33.2065L42.6408 39.5865C42.752 40.0089 42.7502 40.4532 42.6355 40.8747C42.5208 41.2962 42.2973 41.6801 41.9873 41.9879C41.6774 42.2958 41.292 42.5167 40.8697 42.6286C40.4474 42.7404 40.0032 42.7393 39.5815 42.6252L33.1648 40.911C33.1216 40.8994 33.0757 40.9023 33.0343 40.9193C32.9929 40.9362 32.9582 40.9664 32.9356 41.005L29.6379 46.7342C29.4217 47.1143 29.1082 47.4302 28.7297 47.6492C28.3511 47.8683 27.9211 47.9827 27.4838 47.9808H27.4998ZM21.8486 38.6217C22.2853 38.6218 22.7145 38.7363 23.0932 38.9538C23.472 39.1713 23.7871 39.4842 24.0073 39.8615L27.3256 45.5906C27.3423 45.6214 27.3672 45.647 27.3975 45.6644C27.4279 45.6818 27.4625 45.6904 27.4975 45.6892C27.5322 45.6902 27.5664 45.6815 27.5964 45.6641C27.6264 45.6467 27.6508 45.6212 27.6671 45.5906L30.9671 39.8615C31.2398 39.386 31.6621 39.0142 32.1683 38.804C32.6745 38.5938 33.236 38.5571 33.7652 38.6996L40.1819 40.4115C40.2155 40.4201 40.2508 40.4199 40.2842 40.4108C40.3177 40.4016 40.3482 40.3839 40.3727 40.3594C40.3973 40.3349 40.415 40.3044 40.4241 40.2709C40.4333 40.2374 40.4335 40.2021 40.4248 40.1685L38.7129 33.7862C38.5709 33.2584 38.606 32.6985 38.813 32.1926C39.02 31.6867 39.3874 31.2627 39.8588 30.9858L45.5879 27.6675C45.6185 27.6504 45.6439 27.6254 45.6616 27.5952C45.6792 27.565 45.6886 27.5306 45.6886 27.4956C45.6886 27.4606 45.6792 27.4262 45.6616 27.396C45.6439 27.3658 45.6185 27.3409 45.5879 27.3237L39.8588 24.026C39.3842 23.7525 39.013 23.3301 38.803 22.8242C38.5929 22.3182 38.5556 21.7572 38.6969 21.2279L40.4088 14.8112C40.4193 14.778 40.4202 14.7425 40.4112 14.7088C40.4023 14.6751 40.384 14.6447 40.3583 14.621C40.3336 14.5955 40.3025 14.5771 40.2682 14.5679C40.2339 14.5586 40.1978 14.5587 40.1636 14.5683L33.7836 16.2802C33.2557 16.4227 32.6957 16.3877 32.1897 16.1806C31.6837 15.9736 31.2597 15.606 30.9831 15.1344L27.6648 9.40521C27.6481 9.37631 27.624 9.35237 27.595 9.33586C27.566 9.31934 27.5332 9.31085 27.4998 9.31125C27.4652 9.3102 27.4309 9.31888 27.4009 9.33629C27.371 9.35371 27.3465 9.37917 27.3302 9.40979L24.0302 15.139C23.7563 15.6138 23.3334 15.9849 22.8271 16.195C22.3208 16.4051 21.7594 16.4423 21.2298 16.3008L14.8131 14.589C14.7795 14.5803 14.7443 14.5805 14.7108 14.5896C14.6773 14.5988 14.6468 14.6165 14.6223 14.641C14.5977 14.6655 14.58 14.6961 14.5709 14.7295C14.5618 14.763 14.5615 14.7983 14.5702 14.8319L16.2936 21.2073C16.4356 21.7351 16.4004 22.295 16.1934 22.801C15.9864 23.3069 15.619 23.7308 15.1477 24.0077L9.41855 27.326C9.38568 27.3415 9.35801 27.3663 9.33889 27.3972C9.31977 27.4281 9.31003 27.4639 9.31085 27.5002C9.3098 27.5349 9.31847 27.5691 9.33589 27.5991C9.35331 27.629 9.37877 27.6535 9.40939 27.6698L15.1386 30.9698C15.6129 31.2436 15.9838 31.6661 16.1938 32.1719C16.4038 32.6777 16.4413 33.2387 16.3004 33.7679L14.5886 40.1846C14.578 40.2178 14.5772 40.2533 14.5861 40.287C14.595 40.3207 14.6134 40.3512 14.639 40.3748C14.6638 40.4001 14.695 40.4183 14.7292 40.4276C14.7634 40.4369 14.7995 40.4368 14.8338 40.4275L21.2138 38.7156C21.4204 38.6568 21.6338 38.6252 21.8486 38.6217Z" fill="black"/>
<path d="M27.5003 36.3805C25.744 36.3805 24.0271 35.8597 22.5667 34.884C21.1064 33.9082 19.9682 32.5213 19.2961 30.8986C18.624 29.276 18.4481 27.4905 18.7908 25.7679C19.1334 24.0453 19.9792 22.463 21.2211 21.2211C22.463 19.9792 24.0453 19.1334 25.7679 18.7908C27.4905 18.4481 29.276 18.624 30.8986 19.2961C32.5213 19.9682 33.9082 21.1064 34.884 22.5667C35.8597 24.0271 36.3805 25.744 36.3805 27.5003C36.3775 29.8546 35.4409 32.1115 33.7762 33.7762C32.1115 35.4409 29.8546 36.3775 27.5003 36.3805ZM27.5003 20.9118C26.1972 20.9118 24.9234 21.2982 23.8399 22.0222C22.7565 22.7461 21.912 23.7751 21.4133 24.979C20.9146 26.1829 20.7842 27.5076 21.0384 28.7857C21.2926 30.0637 21.9201 31.2377 22.8415 32.1591C23.763 33.0806 24.9369 33.7081 26.215 33.9623C27.493 34.2165 28.8178 34.086 30.0217 33.5873C31.2256 33.0887 32.2545 32.2442 32.9785 31.1607C33.7025 30.0772 34.0889 28.8034 34.0889 27.5003C34.0864 25.7537 33.3915 24.0793 32.1565 22.8442C30.9214 21.6091 29.247 20.9142 27.5003 20.9118Z" fill="black"/>
</svg>
