<svg width="45" height="45" viewBox="0 0 45 45" fill="none" xmlns="http://www.w3.org/2000/svg">
<path d="M36.6075 27.6022H36.6225C37.83 27.6022 39.0131 27.4916 40.1587 27.2797L40.0406 27.2984C37.8919 35.0272 30.9169 40.6072 22.6388 40.6072H22.53H22.5356C12.5175 40.5959 4.39875 32.4772 4.38938 22.4591C4.41287 18.5175 5.70833 14.6871 8.083 11.5411C10.4577 8.39519 13.7846 6.10002 17.5688 4.99718L17.6981 4.9653C17.4932 6.09055 17.3915 7.23217 17.3944 8.37593V8.38905C17.4038 18.9978 26.0006 27.5947 36.6075 27.6041V27.6022ZM22.5112 0.881554C22.2879 0.580169 21.9905 0.341554 21.6479 0.188808C21.3053 0.0360622 20.9291 -0.0256387 20.5556 0.00967875H20.565C9.02437 1.1178 0.06375 10.7328 0 22.4553V22.4609C0.015 34.9016 10.0969 44.9834 22.5356 45.0003H22.65C34.3556 45.0003 43.9631 36.0266 44.9719 24.5834L44.9775 24.4991C45.0098 24.1429 44.9544 23.7843 44.8162 23.4545C44.6779 23.1247 44.461 22.8338 44.1844 22.6072L44.1806 22.6034C43.9014 22.3737 43.5695 22.217 43.2148 22.1473C42.86 22.0775 42.4935 22.0971 42.1481 22.2041L42.1631 22.2003L41.1806 22.4928C39.7071 22.976 38.1657 23.2197 36.615 23.2147H36.6019C32.6732 23.2102 28.9068 21.6476 26.1288 18.8696C23.3508 16.0916 21.7882 12.3252 21.7838 8.39655V8.3628C21.7838 6.43155 22.155 4.58655 22.83 2.89718L22.7944 2.99655C22.9323 2.64696 22.978 2.26778 22.9271 1.89543C22.8762 1.52308 22.7304 1.17007 22.5037 0.870304L22.5075 0.875929L22.5112 0.881554Z" fill="white"/>
</svg>
